<svg width="345" height="345" viewBox="0 0 345 345" fill="none" xmlns="http://www.w3.org/2000/svg">
<rect width="345" height="345" fill="#2D1F16"/>
<circle cx="210" cy="100" r="65" fill="#FEE504"/>
<circle opacity="0.9" cx="145" cy="165" r="65" fill="#FF9D01"/>
<rect x="33" y="329" width="120" height="16" fill="#EA9003"/>
<path d="M36.196 279.909H41.5227L50.7841 302.523H51.125L60.3864 279.909H65.7131V309H61.5369V287.949H61.267L52.6875 308.957H49.2216L40.642 287.935H40.3722V309H36.196V279.909ZM71.7536 309V287.182H76.0007V309H71.7536ZM73.8984 283.815C73.1598 283.815 72.5253 283.569 71.995 283.077C71.4742 282.575 71.2138 281.978 71.2138 281.287C71.2138 280.586 71.4742 279.99 71.995 279.497C72.5253 278.995 73.1598 278.744 73.8984 278.744C74.6371 278.744 75.2668 278.995 75.7876 279.497C76.3179 279.99 76.5831 280.586 76.5831 281.287C76.5831 281.978 76.3179 282.575 75.7876 283.077C75.2668 283.569 74.6371 283.815 73.8984 283.815ZM81.7145 287.182H85.8764V305.321H93.419V287.182H97.581V305.321H105.124V287.182H109.286V309H81.7145V287.182ZM121.306 309.483C119.924 309.483 118.674 309.227 117.556 308.716C116.439 308.195 115.553 307.442 114.9 306.457C114.256 305.473 113.934 304.265 113.934 302.835C113.934 301.604 114.171 300.591 114.644 299.795C115.118 299 115.757 298.37 116.562 297.906C117.367 297.442 118.266 297.092 119.261 296.855C120.255 296.618 121.268 296.438 122.3 296.315C123.607 296.164 124.668 296.041 125.482 295.946C126.297 295.842 126.888 295.676 127.258 295.449C127.627 295.222 127.812 294.852 127.812 294.341V294.241C127.812 293.001 127.461 292.04 126.761 291.358C126.069 290.676 125.037 290.335 123.664 290.335C122.234 290.335 121.107 290.652 120.283 291.287C119.469 291.912 118.906 292.608 118.593 293.375L114.602 292.466C115.075 291.14 115.766 290.07 116.675 289.256C117.594 288.432 118.65 287.835 119.843 287.466C121.036 287.087 122.291 286.898 123.607 286.898C124.478 286.898 125.402 287.002 126.377 287.21C127.362 287.409 128.281 287.778 129.133 288.318C129.995 288.858 130.7 289.63 131.249 290.634C131.799 291.628 132.073 292.92 132.073 294.511V309H127.925V306.017H127.755C127.48 306.566 127.068 307.106 126.519 307.636C125.97 308.167 125.264 308.607 124.403 308.957C123.541 309.308 122.509 309.483 121.306 309.483ZM122.229 306.074C123.404 306.074 124.407 305.842 125.241 305.378C126.084 304.914 126.723 304.308 127.158 303.56C127.603 302.802 127.826 301.992 127.826 301.131V298.318C127.674 298.47 127.381 298.612 126.945 298.744C126.519 298.867 126.031 298.976 125.482 299.071C124.933 299.156 124.398 299.237 123.877 299.312C123.356 299.379 122.921 299.436 122.57 299.483C121.746 299.587 120.994 299.762 120.312 300.009C119.639 300.255 119.1 300.61 118.692 301.074C118.295 301.528 118.096 302.134 118.096 302.892C118.096 303.943 118.484 304.739 119.261 305.278C120.037 305.809 121.027 306.074 122.229 306.074ZM152.517 296.259V299.938H140.699V296.259H152.517ZM141.892 287.182V309H137.73V287.182H141.892ZM155.486 287.182V309H151.338V287.182H155.486ZM165.33 303.048L174.946 287.182H179.52V309H175.358V293.119L165.784 309H161.168V287.182H165.33V303.048ZM200.017 296.259V299.938H188.199V296.259H200.017ZM189.392 287.182V309H185.23V287.182H189.392ZM202.986 287.182V309H198.838V287.182H202.986ZM215.017 309.483C213.634 309.483 212.384 309.227 211.267 308.716C210.15 308.195 209.264 307.442 208.611 306.457C207.967 305.473 207.645 304.265 207.645 302.835C207.645 301.604 207.882 300.591 208.355 299.795C208.829 299 209.468 298.37 210.273 297.906C211.078 297.442 211.977 297.092 212.972 296.855C213.966 296.618 214.979 296.438 216.011 296.315C217.318 296.164 218.379 296.041 219.193 295.946C220.008 295.842 220.599 295.676 220.969 295.449C221.338 295.222 221.523 294.852 221.523 294.341V294.241C221.523 293.001 221.172 292.04 220.472 291.358C219.78 290.676 218.748 290.335 217.375 290.335C215.945 290.335 214.818 290.652 213.994 291.287C213.18 291.912 212.616 292.608 212.304 293.375L208.312 292.466C208.786 291.14 209.477 290.07 210.386 289.256C211.305 288.432 212.361 287.835 213.554 287.466C214.747 287.087 216.002 286.898 217.318 286.898C218.189 286.898 219.113 287.002 220.088 287.21C221.073 287.409 221.991 287.778 222.844 288.318C223.705 288.858 224.411 289.63 224.96 290.634C225.509 291.628 225.784 292.92 225.784 294.511V309H221.636V306.017H221.466C221.191 306.566 220.779 307.106 220.23 307.636C219.681 308.167 218.975 308.607 218.114 308.957C217.252 309.308 216.22 309.483 215.017 309.483ZM215.94 306.074C217.115 306.074 218.118 305.842 218.952 305.378C219.795 304.914 220.434 304.308 220.869 303.56C221.314 302.802 221.537 301.992 221.537 301.131V298.318C221.385 298.47 221.092 298.612 220.656 298.744C220.23 298.867 219.742 298.976 219.193 299.071C218.644 299.156 218.109 299.237 217.588 299.312C217.067 299.379 216.632 299.436 216.281 299.483C215.457 299.587 214.705 299.762 214.023 300.009C213.35 300.255 212.811 300.61 212.403 301.074C212.006 301.528 211.807 302.134 211.807 302.892C211.807 303.943 212.195 304.739 212.972 305.278C213.748 305.809 214.738 306.074 215.94 306.074Z" fill="#FFFEFE"/>
</svg>
